<svg width="300" height="300" viewBox="0 0 300 300" fill="none" xmlns="http://www.w3.org/2000/svg">
<rect x="170" y="105" width="45" height="41" fill="#E19741"/>
<rect x="163" y="51" width="68" height="59" fill="#E19741"/>
<rect x="170" y="149" width="58" height="92" fill="#DB5E43"/>
<rect x="73" y="48" width="80" height="200" fill="#474139"/>
<rect width="25.613" height="132.809" transform="matrix(0.76025 0.649631 0.635914 -0.77176 152 179.172)" fill="black"/>
<rect width="21.8527" height="33.698" transform="matrix(-0.648262 0.761417 -0.514151 -0.8577 168.108 177.352)" fill="black"/>
<rect width="21.8527" height="33.698" transform="matrix(-0.648262 0.761417 -0.514151 -0.8577 178.706 160.033)" fill="black"/>
<rect width="21.8527" height="33.698" transform="matrix(-0.648262 0.761417 -0.514151 -0.8577 184.933 151.67)" fill="black"/>
<rect width="25.5565" height="52.8667" transform="matrix(0 -1 -1 0 221 262)" fill="black"/>
<rect width="25.096" height="34.1467" transform="matrix(-1 0 0 1 247.604 181)" fill="black"/>
<rect width="25.2119" height="53.9266" transform="matrix(-0.862044 -0.506834 -0.493197 0.869918 247.378 215.147)" fill="black"/>
<rect width="25.2119" height="53.8424" transform="matrix(0.862044 -0.506834 -0.493197 -0.869918 226.059 193.834)" fill="black"/>
<rect x="222.508" y="34.1212" width="25.5565" height="52.2833" transform="rotate(90 222.508 34.1212)" fill="black"/>
<rect width="25.2119" height="67.7706" transform="matrix(-0.862044 0.506834 -0.493197 -0.869918 255.666 92.955)" fill="black"/>
<rect width="25.5565" height="122.889" transform="matrix(0 -1 -1 0 173.891 59.6777)" fill="black"/>
<rect width="25.5565" height="122.889" transform="matrix(0 -1 -1 0 173.891 262)" fill="black"/>
<rect width="23.785" height="61.7616" transform="matrix(-1 0 0 1 124.339 58.6127)" fill="black"/>
<rect width="24.5325" height="89.3579" transform="matrix(0.742704 0.669619 0.61549 -0.788145 51.002 174.829)" fill="black"/>
<rect width="24.5325" height="89.3579" transform="matrix(0.742704 0.669619 0.61549 -0.788145 100.556 174.828)" fill="black"/>
<rect width="24.5325" height="36.2056" transform="matrix(-0.742704 0.669619 -0.61549 -0.788145 91.5044 132.937)" fill="black"/>
<rect width="24.5325" height="36.2056" transform="matrix(-0.742704 0.669619 -0.61549 -0.788145 195.163 146.872)" fill="black"/>
<rect width="23.785" height="61.7616" transform="matrix(-1 0 0 1 173.891 59.6776)" fill="black"/>
<rect width="23.785" height="61.7616" transform="matrix(-1 0 0 1 74.7871 59.6776)" fill="black"/>
<rect width="23.785" height="61.7616" transform="matrix(-1 0 0 1 124.339 174.682)" fill="black"/>
<rect width="23.785" height="61.7616" transform="matrix(-1 0 0 1 173.891 174.682)" fill="black"/>
<rect width="23.785" height="61.7616" transform="matrix(-1 0 0 1 74.7871 174.682)" fill="black"/>
</svg>
